<svg width="31" height="30" viewBox="0 0 31 30" fill="none" xmlns="http://www.w3.org/2000/svg">
<path d="M21.1986 15.1553C21.1748 12.4982 23.356 11.2225 23.4523 11.1634C22.2266 9.35805 20.3156 9.10643 19.6378 9.07624C18.0107 8.91143 16.4624 10.0412 15.6395 10.0412C14.8166 10.0412 13.5409 9.10392 12.1952 9.13034C10.4193 9.15424 8.78846 10.1683 7.87424 11.7597C6.03329 14.9729 7.40149 19.736 9.19867 22.3415C10.0741 23.6172 11.1184 25.0502 12.4904 24.9986C13.8148 24.947 14.3151 24.1393 15.9134 24.1393C17.5117 24.1393 17.9607 24.9986 19.3602 24.9772C20.7821 24.947 21.6838 23.6713 22.5518 22.3956C23.5573 20.9148 23.975 19.4819 23.9988 19.4064C23.9675 19.3951 21.2249 18.3358 21.1973 15.1553H21.1986Z" fill="white"/>
<path d="M18.5685 7.35155C19.2989 6.46459 19.7904 5.22915 19.6553 4C18.606 4.04026 17.3341 4.70579 16.5825 5.58897C15.9059 6.37779 15.3118 7.63839 15.4731 8.84112C16.6425 8.93045 17.8419 8.24101 18.5685 7.35155Z" fill="white"/>
</svg>
